<svg width="8" height="13" viewBox="0 0 8 13" fill="none" xmlns="http://www.w3.org/2000/svg">
<path d="M5.26705 3C5.24432 2.71591 5.13778 2.49432 4.94744 2.33523C4.75994 2.17614 4.47443 2.09659 4.09091 2.09659C3.84659 2.09659 3.64631 2.12642 3.49006 2.18608C3.33665 2.2429 3.22301 2.32102 3.14915 2.42045C3.07528 2.51989 3.03693 2.63352 3.03409 2.76136C3.02841 2.86648 3.04688 2.96165 3.08949 3.04688C3.13494 3.12926 3.20597 3.20455 3.30256 3.27273C3.39915 3.33807 3.52273 3.39773 3.6733 3.4517C3.82386 3.50568 4.00284 3.55398 4.21023 3.59659L4.92614 3.75C5.40909 3.85227 5.82244 3.98722 6.16619 4.15483C6.50994 4.32244 6.79119 4.51989 7.00994 4.74716C7.22869 4.97159 7.3892 5.22443 7.49148 5.50568C7.59659 5.78693 7.65057 6.09375 7.65341 6.42614C7.65057 7 7.5071 7.4858 7.22301 7.88352C6.93892 8.28125 6.53267 8.58381 6.00426 8.79119C5.47869 8.99858 4.84659 9.10227 4.10795 9.10227C3.34943 9.10227 2.6875 8.99006 2.12216 8.76562C1.55966 8.54119 1.12216 8.19602 0.809659 7.73011C0.5 7.26136 0.34375 6.66193 0.340909 5.93182H2.59091C2.60511 6.19886 2.67188 6.4233 2.79119 6.60511C2.91051 6.78693 3.07813 6.92472 3.29403 7.01847C3.51278 7.11222 3.77273 7.15909 4.07386 7.15909C4.3267 7.15909 4.53835 7.12784 4.70881 7.06534C4.87926 7.00284 5.00852 6.91619 5.09659 6.8054C5.18466 6.6946 5.23011 6.56818 5.23295 6.42614C5.23011 6.29261 5.18608 6.17614 5.10085 6.0767C5.01847 5.97443 4.8821 5.88352 4.69176 5.80398C4.50142 5.72159 4.24432 5.64489 3.92045 5.57386L3.05114 5.38636C2.27841 5.21875 1.66903 4.93892 1.22301 4.54688C0.77983 4.15199 0.559659 3.61364 0.5625 2.93182C0.559659 2.37784 0.707386 1.89347 1.00568 1.47869C1.30682 1.06108 1.72301 0.735795 2.25426 0.502841C2.78835 0.269886 3.40057 0.153409 4.09091 0.153409C4.79545 0.153409 5.40483 0.271307 5.91903 0.507102C6.43324 0.742898 6.82955 1.07528 7.10795 1.50426C7.3892 1.9304 7.53125 2.42898 7.53409 3H5.26705Z" fill="white"/>
<path d="M5.26705 3L5.01784 3.01994L5.03625 3.25H5.26705V3ZM4.94744 2.33523L4.78569 2.52586L4.78712 2.52705L4.94744 2.33523ZM3.49006 2.18608L3.57689 2.42053L3.57923 2.41963L3.49006 2.18608ZM3.14915 2.42045L2.94846 2.27137L2.94846 2.27137L3.14915 2.42045ZM3.03409 2.76136L3.28385 2.77486L3.28403 2.76692L3.03409 2.76136ZM3.08949 3.04688L2.8657 3.15877L2.87059 3.16764L3.08949 3.04688ZM3.30256 3.27273L3.15836 3.47701L3.16248 3.4798L3.30256 3.27273ZM4.21023 3.59659L4.26261 3.35213L4.26055 3.35171L4.21023 3.59659ZM4.92614 3.75L4.87375 3.99445L4.87434 3.99458L4.92614 3.75ZM7.00994 4.74716L6.82982 4.92053L6.83091 4.92166L7.00994 4.74716ZM7.49148 5.50568L7.25652 5.59112L7.2573 5.5932L7.49148 5.50568ZM7.65341 6.42614L7.90343 6.42737L7.9034 6.424L7.65341 6.42614ZM7.22301 7.88352L7.42644 8.02883L7.42644 8.02883L7.22301 7.88352ZM6.00426 8.79119L5.91293 8.55847L5.9125 8.55864L6.00426 8.79119ZM2.12216 8.76562L2.02951 8.99783L2.02992 8.99798L2.12216 8.76562ZM0.809659 7.73011L0.60106 7.86792L0.602037 7.86937L0.809659 7.73011ZM0.340909 5.93182V5.68182H0.0899344L0.090911 5.93279L0.340909 5.93182ZM2.59091 5.93182L2.84056 5.91854L2.82796 5.68182H2.59091V5.93182ZM2.79119 6.60511L2.58218 6.74228L2.58218 6.74228L2.79119 6.60511ZM3.29403 7.01847L3.19446 7.24778L3.19555 7.24825L3.29403 7.01847ZM4.70881 7.06534L4.79487 7.30006L4.79487 7.30006L4.70881 7.06534ZM5.09659 6.8054L5.2923 6.96096L5.2923 6.96096L5.09659 6.8054ZM5.23295 6.42614L5.48312 6.43114L5.4829 6.42082L5.23295 6.42614ZM5.10085 6.0767L4.90607 6.23361L4.91104 6.2394L5.10085 6.0767ZM4.69176 5.80398L4.59245 6.03343L4.59536 6.03464L4.69176 5.80398ZM3.92045 5.57386L3.97401 5.32967L3.97316 5.32948L3.92045 5.57386ZM3.05114 5.38636L2.99814 5.63068L2.99843 5.63074L3.05114 5.38636ZM1.22301 4.54688L1.05669 4.73353L1.05796 4.73465L1.22301 4.54688ZM0.5625 2.93182L0.812509 2.93286L0.812497 2.93054L0.5625 2.93182ZM1.00568 1.47869L0.802903 1.33247L0.802719 1.33273L1.00568 1.47869ZM2.25426 0.502841L2.15431 0.273689L2.15386 0.273886L2.25426 0.502841ZM5.91903 0.507102L5.81483 0.734348L5.81483 0.734348L5.91903 0.507102ZM7.10795 1.50426L6.89824 1.64037L6.8993 1.64197L7.10795 1.50426ZM7.53409 3V3.25H7.78534L7.78409 2.99876L7.53409 3ZM5.51625 2.98006C5.48904 2.63991 5.35739 2.35204 5.10777 2.14341L4.78712 2.52705C4.91818 2.63659 4.9996 2.79191 5.01784 3.01994L5.51625 2.98006ZM5.10919 2.1446C4.85721 1.9308 4.50217 1.84659 4.09091 1.84659V2.34659C4.44669 2.34659 4.66267 2.42147 4.7857 2.52585L5.10919 2.1446ZM4.09091 1.84659C3.8289 1.84659 3.59551 1.87821 3.40088 1.95252L3.57923 2.41963C3.6971 2.37463 3.86428 2.34659 4.09091 2.34659V1.84659ZM3.40323 1.95164C3.21869 2.01999 3.05912 2.12241 2.94846 2.27137L3.34983 2.56954C3.3869 2.51964 3.45461 2.46581 3.57689 2.42052L3.40323 1.95164ZM2.94846 2.27137C2.84266 2.4138 2.7881 2.57797 2.78415 2.75581L3.28403 2.76692C3.28576 2.68908 3.30791 2.62597 3.34983 2.56953L2.94846 2.27137ZM2.78446 2.74787C2.77668 2.89165 2.80189 3.03069 2.86588 3.15868L3.3131 2.93507C3.29186 2.89261 3.28013 2.8413 3.28373 2.77486L2.78446 2.74787ZM2.87059 3.16764C2.93839 3.29053 3.03861 3.39242 3.15839 3.47697L3.44673 3.06849C3.37332 3.01667 3.33149 2.96799 3.30838 2.92611L2.87059 3.16764ZM3.16248 3.4798C3.28145 3.56028 3.42541 3.62842 3.58893 3.68704L3.75766 3.21637C3.62004 3.16704 3.51685 3.11586 3.44263 3.06566L3.16248 3.4798ZM3.58893 3.68704C3.7535 3.74604 3.94442 3.7972 4.15991 3.84147L4.26055 3.35171C4.06126 3.31076 3.89423 3.26533 3.75766 3.21637L3.58893 3.68704ZM4.15785 3.84104L4.87375 3.99445L4.97852 3.50555L4.26261 3.35214L4.15785 3.84104ZM4.87434 3.99458C5.34276 4.09377 5.73567 4.22304 6.05662 4.37954L6.27576 3.93012C5.90922 3.75139 5.47542 3.61077 4.97793 3.50542L4.87434 3.99458ZM6.05662 4.37954C6.37945 4.53695 6.6352 4.71832 6.82982 4.92053L7.19006 4.57379C6.94719 4.32145 6.64043 4.10793 6.27576 3.93012L6.05662 4.37954ZM6.83091 4.92166C7.02612 5.12193 7.16694 5.34476 7.25653 5.59112L7.72643 5.42025C7.61147 5.10411 7.43127 4.82126 7.18897 4.57266L6.83091 4.92166ZM7.2573 5.5932C7.35117 5.84436 7.4008 6.12194 7.40342 6.42827L7.9034 6.424C7.90034 6.06556 7.84202 5.7295 7.72566 5.41816L7.2573 5.5932ZM7.40341 6.4249C7.40078 6.95633 7.26866 7.38949 7.01958 7.73821L7.42644 8.02883C7.74554 7.5821 7.90036 7.04367 7.90341 6.42737L7.40341 6.4249ZM7.01958 7.73821C6.76791 8.09054 6.40373 8.36585 5.91293 8.55847L6.0956 9.02391C6.66161 8.80177 7.10993 8.47196 7.42644 8.02883L7.01958 7.73821ZM5.9125 8.55864C5.42361 8.75156 4.82434 8.85227 4.10795 8.85227V9.35227C4.86884 9.35227 5.53378 9.2456 6.09602 9.02374L5.9125 8.55864ZM4.10795 8.85227C3.37349 8.85227 2.74412 8.74356 2.2144 8.53327L2.02992 8.99798C2.63088 9.23656 3.32537 9.35227 4.10795 9.35227V8.85227ZM2.2148 8.53343C1.69521 8.32611 1.29945 8.01154 1.01728 7.59085L0.602037 7.86937C0.944873 8.38051 1.4241 8.75627 2.02951 8.99782L2.2148 8.53343ZM1.01825 7.59232C0.742382 7.17471 0.593615 6.62668 0.590907 5.93085L0.090911 5.93279C0.0938853 6.69718 0.257618 7.34802 0.601065 7.86791L1.01825 7.59232ZM0.340909 6.18182H2.59091V5.68182H0.340909V6.18182ZM2.34126 5.9451C2.35728 6.24622 2.4336 6.51587 2.58218 6.74228L3.00021 6.46795C2.91015 6.33072 2.85295 6.15151 2.84056 5.91854L2.34126 5.9451ZM2.58218 6.74228C2.73043 6.96819 2.93772 7.1363 3.19446 7.24778L3.39361 6.78915C3.21853 6.71313 3.09059 6.60568 3.00021 6.46795L2.58218 6.74228ZM3.19555 7.24825C3.4525 7.35837 3.74753 7.40909 4.07386 7.40909V6.90909C3.79793 6.90909 3.57307 6.86606 3.39251 6.78868L3.19555 7.24825ZM4.07386 7.40909C4.3454 7.40909 4.58835 7.37578 4.79487 7.30006L4.62274 6.83062C4.48836 6.8799 4.30801 6.90909 4.07386 6.90909V7.40909ZM4.79487 7.30006C4.99645 7.22615 5.16862 7.11655 5.2923 6.96096L4.90089 6.64984C4.84843 6.71583 4.76208 6.77953 4.62274 6.83062L4.79487 7.30006ZM5.2923 6.96096C5.4146 6.8071 5.47897 6.62773 5.4829 6.43114L4.983 6.42114C4.98125 6.50863 4.95472 6.58211 4.90089 6.64984L5.2923 6.96096ZM5.4829 6.42082C5.47885 6.23071 5.41435 6.0583 5.29067 5.91401L4.91104 6.2394C4.95781 6.29397 4.98137 6.35452 4.98301 6.43145L5.4829 6.42082ZM5.29554 5.91987C5.17626 5.7718 4.99708 5.66062 4.78816 5.57331L4.59536 6.03464C4.76713 6.10643 4.86067 6.17706 4.90616 6.23354L5.29554 5.91987ZM4.79107 5.57455C4.57993 5.48316 4.30544 5.40235 3.97401 5.32967L3.8669 5.81806C4.18319 5.88742 4.42291 5.96002 4.59246 6.03341L4.79107 5.57455ZM3.97316 5.32948L3.10385 5.14198L2.99843 5.63074L3.86775 5.81824L3.97316 5.32948ZM3.10413 5.14205C2.35967 4.98056 1.79329 4.71529 1.38806 4.3591L1.05796 4.73465C1.54477 5.16255 2.19714 5.45694 2.99814 5.63068L3.10413 5.14205ZM1.38933 4.36022C1.00787 4.02033 0.809906 3.5548 0.812498 2.93286L0.312502 2.93078C0.309412 3.67247 0.55179 4.28364 1.0567 4.73353L1.38933 4.36022ZM0.812497 2.93054C0.809903 2.42467 0.943826 1.99288 1.20864 1.62466L0.802719 1.33273C0.470947 1.79405 0.309416 2.33101 0.312503 2.9331L0.812497 2.93054ZM1.20846 1.62491C1.48029 1.24795 1.85902 0.949135 2.35466 0.731795L2.15386 0.273886C1.587 0.522455 1.13335 0.87421 0.802903 1.33247L1.20846 1.62491ZM2.35421 0.731992C2.8515 0.515088 3.4287 0.403409 4.09091 0.403409V-0.0965912C3.37243 -0.0965912 2.7252 0.0246841 2.15431 0.273689L2.35421 0.731992ZM4.09091 0.403409C4.76807 0.403409 5.34031 0.516753 5.81483 0.734348L6.02324 0.279856C5.46935 0.0258596 4.82284 -0.0965912 4.09091 -0.0965912V0.403409ZM5.81483 0.734348C6.29067 0.952551 6.64835 1.25531 6.89825 1.64036L7.31766 1.36816C7.01074 0.895259 6.57581 0.533244 6.02324 0.279856L5.81483 0.734348ZM6.8993 1.64197C7.15072 2.02291 7.28147 2.47282 7.28409 3.00124L7.78409 2.99876C7.78104 2.38514 7.62769 1.83789 7.31661 1.36655L6.8993 1.64197ZM7.53409 2.75H5.26705V3.25H7.53409V2.75Z" fill="#202022"/>
<line y1="12.5" x2="8" y2="12.5" stroke="#FFDB70"/>
</svg>
