<svg width="299" height="234" viewBox="0 0 299 234" fill="none" xmlns="http://www.w3.org/2000/svg">
<g clip-path="url(#clip0_138_8)">
<path fill-rule="evenodd" clip-rule="evenodd" d="M8.12712 0H290.873C295.35 0 299 3.44422 299 7.66912V184.426C299 188.651 295.35 192.095 290.873 192.095H8.12712C3.6499 192.095 0 188.651 0 184.426V7.66912C0 3.44422 3.6499 0 8.12712 0ZM30.5862 26.819H54.4809V32.6971H30.5862V26.819ZM65.8686 89.0904H30.5862V83.1893H65.8686V89.0904ZM113.877 89.1133H73.0467V83.1893H113.877V89.1133ZM184.101 89.1133H120.787V83.2122H184.125V89.1133H184.101ZM90.6392 64.4527H215.101V70.262H90.6392V64.4527ZM61.367 64.4068H83.8991V70.285H61.367V64.4068ZM30.5862 64.4068H54.4809V70.285H30.5862V64.4068ZM84.6047 51.4566H30.5862V45.6244H84.6291V51.4566H84.6047ZM113.877 51.4795H91.3449V45.6014H113.877V51.4795ZM184.101 51.5025H120.787V45.6014H184.125V51.5025H184.101ZM90.6392 26.819H144.682V32.6512H90.6392V26.819ZM61.367 26.819H83.8991V32.6971H61.367V26.819ZM221.914 142.545L199.771 130.834V124.13L221.914 112.419V120.134L206.487 127.39L221.914 134.875V142.545ZM226.026 147.757L234.032 106.633H238.679L230.625 147.757H226.026ZM242.062 142.591V134.921L257.513 127.574L242.062 120.134V112.511L264.204 124.313V130.926L242.062 142.591ZM112.636 202.681H186.364C186.559 214.712 191.815 225.481 206.049 233.977H92.9509C104.339 226.193 112.685 216.733 112.636 202.681ZM149.5 166.264C155.267 166.264 159.939 170.672 159.939 176.114C159.939 181.556 155.267 185.965 149.5 185.965C143.733 185.965 139.061 181.556 139.061 176.114C139.061 170.672 143.733 166.264 149.5 166.264ZM24.4543 14.4427H274.57C278.536 14.4427 281.748 17.4966 281.748 21.2164V153.291C281.748 157.01 278.512 160.064 274.57 160.064H24.4543C20.5125 160.064 17.2762 157.01 17.2762 153.291V21.2164C17.2519 17.4966 20.4881 14.4427 24.4543 14.4427Z" fill="url(#paint0_linear_138_8)"/>
</g>
<defs>
<linearGradient id="paint0_linear_138_8" x1="0" y1="0" x2="299" y2="234" gradientUnits="userSpaceOnUse">
<stop stop-color="#FACB3D"/>
<stop offset="1" stop-color="#F5A242"/>
</linearGradient>
<clipPath id="clip0_138_8">
<rect width="299" height="234" fill="white"/>
</clipPath>
</defs>
</svg>
