<svg width="512" height="378" viewBox="0 0 512 378" fill="none" xmlns="http://www.w3.org/2000/svg">
<g clip-path="url(#clip0_138_6)">
<path fill-rule="evenodd" clip-rule="evenodd" d="M32.001 0H440.723C458.323 0 472.724 14.401 472.724 32.001V128.213C466.398 127.115 460.054 126.122 453.695 125.232V89.6H453.832H20.337V322.188C20.3296 323.353 20.5548 324.507 20.9994 325.584C21.4439 326.66 22.099 327.637 22.926 328.457C23.7461 329.284 24.723 329.939 25.7995 330.383C26.876 330.828 28.0304 331.053 29.195 331.046H288.477C290.341 337.868 292.677 344.552 295.572 351.071H32.001C14.401 351.071 0 336.67 0 319.07V32.001C0 14.401 14.401 0 32.001 0ZM361.922 204.736C376.836 209.716 397.594 212.794 420.654 212.794C443.715 212.794 464.471 209.716 479.387 204.736C492.478 200.367 500.575 195.076 500.575 189.9C500.575 184.728 492.478 179.437 479.387 175.067C464.471 170.088 443.715 167.007 420.654 167.007C397.594 167.007 376.836 170.088 361.922 175.067C334.146 184.338 333.383 195.21 361.922 204.736ZM473.892 228.925C478.826 228.925 482.828 232.926 482.828 237.86C482.828 242.794 478.826 246.793 473.892 246.793C472.719 246.793 471.557 246.562 470.473 246.113C469.389 245.664 468.405 245.006 467.575 244.177C466.746 243.347 466.088 242.363 465.639 241.279C465.19 240.195 464.959 239.033 464.959 237.86C464.959 232.926 468.958 228.925 473.892 228.925ZM473.892 281.523C478.826 281.523 482.828 285.525 482.828 290.458C482.828 295.392 478.826 299.391 473.892 299.391C472.719 299.391 471.557 299.16 470.473 298.711C469.389 298.262 468.405 297.604 467.575 296.775C466.746 295.945 466.088 294.961 465.639 293.877C465.19 292.793 464.959 291.631 464.959 290.458C464.959 285.525 468.958 281.523 473.892 281.523ZM473.892 332.026C476.262 332.027 478.534 332.968 480.21 334.644C481.886 336.32 482.827 338.592 482.828 340.962C482.828 345.896 478.826 349.895 473.892 349.895C472.719 349.895 471.557 349.664 470.473 349.215C469.389 348.766 468.405 348.108 467.575 347.279C466.746 346.449 466.088 345.465 465.639 344.381C465.19 343.297 464.959 342.135 464.959 340.962C464.959 336.028 468.958 332.026 473.892 332.026ZM500.605 310.18C495.942 313.371 490.004 316.183 482.981 318.527C466.917 323.891 444.87 327.208 420.654 327.208C396.437 327.208 374.392 323.891 358.326 318.527C351.394 316.212 345.488 313.443 340.852 310.304V344.333C341.883 349.159 349.74 354.023 361.922 358.089C376.836 363.066 397.594 366.146 420.654 366.146C443.715 366.146 464.471 363.068 479.387 358.089C488.427 355.07 495.085 351.613 498.341 348.06C501.027 345.127 500.605 343.194 500.605 339.689V310.18ZM329.37 189.9C329.37 179.294 340.436 170.297 358.326 164.324C374.392 158.963 396.44 155.643 420.654 155.643C444.87 155.643 466.917 158.963 482.983 164.324C499.267 169.76 509.897 177.704 511.673 187.086C511.885 187.682 512 188.324 512 188.995V345.603C512 356.461 491.258 366.069 482.981 368.83C466.917 374.193 444.87 377.51 420.654 377.51C396.437 377.51 374.392 374.193 358.326 368.83C349.855 366.001 329.489 356.711 329.489 345.603V341.964C329.489 291.278 329.37 240.581 329.37 189.9ZM340.852 294.03C341.883 298.854 349.74 303.718 361.922 307.784C376.836 312.764 397.594 315.844 420.654 315.844C443.715 315.844 464.471 312.764 479.387 307.784C492.478 303.415 500.575 298.124 500.575 292.951H500.637V259.878C495.974 263.069 490.004 265.878 482.981 268.223C466.917 273.587 444.87 276.903 420.654 276.903C396.437 276.903 374.392 273.587 358.326 268.223C351.394 265.91 345.488 263.141 340.852 260.002V294.03ZM340.852 243.726C341.883 248.552 349.74 253.416 361.922 257.482C376.836 262.459 397.594 265.54 420.654 265.54C443.715 265.54 464.471 262.462 479.387 257.482C492.478 253.113 500.575 247.822 500.575 242.646H500.637V207.132C495.974 210.323 490.004 213.135 482.981 215.477C466.917 220.841 444.87 224.157 420.654 224.157C396.44 224.157 374.392 220.841 358.326 215.477C351.394 213.164 345.488 210.395 340.852 207.256V243.726ZM132.374 229.843C136.712 233.638 137.149 240.237 133.354 244.574C129.559 248.912 122.961 249.35 118.623 245.555L78.932 210.777C74.595 206.982 74.157 200.383 77.952 196.045C78.2811 195.669 78.6366 195.317 79.016 194.992L118.623 160.289C122.961 156.494 129.559 156.932 133.354 161.27C137.149 165.608 136.712 172.206 132.374 176.001L101.649 202.921L132.374 229.843ZM217.059 245.555C212.722 249.35 206.123 248.912 202.328 244.574C198.533 240.237 198.971 233.638 203.308 229.843L234.033 202.921L203.308 176.001C198.971 172.206 198.533 165.608 202.328 161.27C206.123 156.932 212.722 156.494 217.059 160.289L256.666 194.992C257.04 195.312 257.397 195.664 257.73 196.045C261.525 200.383 261.087 206.982 256.75 210.777L217.059 245.555ZM171.742 146.063C173.12 140.458 178.782 137.031 184.387 138.409C189.992 139.786 193.419 145.448 192.041 151.053L166.464 253.988C165.087 259.594 159.425 263.02 153.82 261.643C148.215 260.265 144.788 254.603 146.165 248.998L171.742 146.063ZM410.266 35.973C418.995 35.973 426.072 43.05 426.072 51.779C426.072 60.508 418.995 67.582 410.266 67.582C401.537 67.582 394.46 60.508 394.46 51.779C394.46 43.05 401.537 35.973 410.266 35.973ZM303.138 35.973C311.867 35.973 318.944 43.05 318.944 51.779C318.944 60.508 311.867 67.582 303.138 67.582C294.41 67.582 287.333 60.508 287.333 51.779C287.333 43.05 294.41 35.973 303.138 35.973ZM356.704 35.973C365.432 35.973 372.507 43.05 372.507 51.779C372.507 60.508 365.432 67.582 356.704 67.582C347.975 67.582 340.898 60.508 340.898 51.779C340.898 43.05 347.975 35.973 356.704 35.973Z" fill="url(#paint0_linear_138_6)"/>
</g>
<defs>
<linearGradient id="paint0_linear_138_6" x1="0" y1="0" x2="512" y2="378" gradientUnits="userSpaceOnUse">
<stop stop-color="#FACB3D"/>
<stop offset="1" stop-color="#F5A242"/>
</linearGradient>
<clipPath id="clip0_138_6">
<rect width="512" height="377.51" fill="white"/>
</clipPath>
</defs>
</svg>
